<svg xmlns="http://www.w3.org/2000/svg" version="1.1" xlink="http://www.w3.org/1999/xlink"
    xmlns:svgjs="http://svgjs.com/svgjs" width="100%" height="100%" viewBox="3.680000066757202 -60.939998626708984 462 71.9000015258789">
    <g fill="#4a4a4a">
        <path d="M43.84 -31.49C42.86 -31.49 42.15 -31.71 41.72 -32.15C41.28 -32.58 40.6 -33.51 39.67 -34.93L29.69 -50.14C29.37 -50.69 28.98 -51.06 28.55 -51.25C28.11 -51.44 27.68 -51.53 27.24 -51.53L25.85 -51.53C25.14 -51.53 24.61 -51.33 24.25 -50.92C23.9 -50.51 23.72 -49.87 23.72 -49L23.72 -7.36L24.54 -7.36L24.54 -49C24.54 -49.43 24.62 -49.83 24.78 -50.18C24.95 -50.54 25.3 -50.71 25.85 -50.71L27.08 -50.71C27.46 -50.71 27.8 -50.66 28.1 -50.55C28.4 -50.44 28.71 -50.11 29.04 -49.57L39.02 -34.52C40 -33.05 40.75 -32.04 41.27 -31.49C41.79 -30.95 42.64 -30.67 43.84 -30.67C45.04 -30.67 45.9 -30.95 46.42 -31.49C46.94 -32.04 47.69 -33.05 48.67 -34.52L58.65 -49.57C58.98 -50.11 59.28 -50.44 59.55 -50.55C59.82 -50.66 60.15 -50.71 60.53 -50.71L61.76 -50.71C62.3 -50.71 62.67 -50.54 62.86 -50.18C63.05 -49.83 63.15 -49.43 63.15 -49L63.15 -7.36L63.97 -7.36L63.97 -49C63.97 -49.87 63.79 -50.51 63.43 -50.92C63.08 -51.33 62.52 -51.53 61.76 -51.53L60.37 -51.53C59.93 -51.53 59.51 -51.44 59.1 -51.25C58.69 -51.06 58.32 -50.69 57.99 -50.14L48.02 -34.93C47.09 -33.51 46.41 -32.58 45.97 -32.15C45.53 -31.71 44.83 -31.49 43.84 -31.49ZM30.18 0L18 0C16.96 0 16.21 -0.23 15.75 -0.7C15.28 -1.16 15.05 -1.91 15.05 -2.94L15.05 -55.95C15.05 -56.99 15.28 -57.74 15.75 -58.2C16.21 -58.66 16.96 -58.89 18 -58.89L31.17 -58.89C32.04 -58.89 32.76 -58.7 33.33 -58.32C33.91 -57.94 34.44 -57.31 34.93 -56.44L42.29 -43.11C42.56 -42.62 42.79 -42.26 42.98 -42.04C43.18 -41.83 43.43 -41.72 43.76 -41.72L44.5 -41.72C44.83 -41.72 45.08 -41.83 45.28 -42.04C45.46 -42.26 45.7 -42.62 45.97 -43.11L53.25 -56.44C53.74 -57.31 54.27 -57.94 54.85 -58.32C55.42 -58.7 56.14 -58.89 57.01 -58.89L70.26 -58.89C71.3 -58.89 72.05 -58.66 72.51 -58.2C72.98 -57.74 73.21 -56.99 73.21 -55.95L73.21 -2.94C73.21 -1.91 72.98 -1.16 72.51 -0.7C72.05 -0.23 71.3 0 70.26 0L57.67 0C56.63 0 55.88 -0.23 55.42 -0.7C54.95 -1.16 54.72 -1.91 54.72 -2.94L54.72 -31.74L49.9 -22.82C49.41 -21.89 48.82 -21.23 48.14 -20.82C47.46 -20.41 46.6 -20.2 45.56 -20.2L42.29 -20.2C41.25 -20.2 40.39 -20.41 39.71 -20.82C39.03 -21.23 38.45 -21.89 37.95 -22.82L33.13 -31.74L33.13 -2.94C33.13 -1.91 32.9 -1.16 32.43 -0.7C31.97 -0.23 31.22 0 30.18 0ZM32.8 0.08C33.18 -0.25 33.47 -0.65 33.66 -1.15C33.85 -1.64 33.95 -2.24 33.95 -2.94L33.95 -10.47L35.01 -10.47C35.77 -10.47 36.44 -10.57 37.01 -10.76C37.59 -10.95 38.09 -11.23 38.53 -11.62L43.35 -15.62L43.35 5.97C43.35 7.28 43.64 8.23 44.21 8.83C44.78 9.43 45.75 9.73 47.12 9.73L59.71 9.73C60.26 9.73 60.76 9.65 61.23 9.49C61.69 9.32 62.03 9.13 62.25 8.92L72.88 0.08C73.26 -0.25 73.55 -0.65 73.74 -1.15C73.93 -1.64 74.03 -2.24 74.03 -2.94L74.03 -55.95C74.03 -57.26 73.73 -58.21 73.13 -58.81C72.53 -59.41 71.57 -59.71 70.26 -59.71L57.01 -59.71C56.36 -59.71 55.8 -59.63 55.34 -59.47C54.87 -59.3 54.42 -59.06 53.99 -58.73L43.43 -49.9C43.16 -49.68 42.9 -49.39 42.66 -49.04C42.41 -48.68 42.18 -48.32 41.96 -47.93L41.23 -46.62L35.66 -56.85C35.06 -57.89 34.42 -58.62 33.74 -59.06C33.06 -59.49 32.2 -59.71 31.17 -59.71L18 -59.71C17.45 -59.71 16.95 -59.64 16.48 -59.51C16.02 -59.37 15.65 -59.2 15.38 -58.98L4.83 -50.06C4.44 -49.73 4.16 -49.32 3.97 -48.83C3.78 -48.34 3.68 -47.74 3.68 -47.03L3.68 5.97C3.68 7.28 3.98 8.23 4.58 8.83C5.18 9.43 6.13 9.73 7.44 9.73L19.63 9.73C20.18 9.73 20.68 9.65 21.14 9.49C21.61 9.32 21.95 9.13 22.17 8.92Z M129.65 -31.49C128.67 -31.49 127.96 -31.71 127.52 -32.15C127.09 -32.58 126.41 -33.51 125.48 -34.93L115.5 -50.14C115.17 -50.69 114.79 -51.06 114.35 -51.25C113.92 -51.44 113.48 -51.53 113.04 -51.53L111.65 -51.53C110.95 -51.53 110.41 -51.33 110.06 -50.92C109.7 -50.51 109.53 -49.87 109.53 -49L109.53 -7.36L110.35 -7.36L110.35 -49C110.35 -49.43 110.43 -49.83 110.59 -50.18C110.75 -50.54 111.11 -50.71 111.65 -50.71L112.88 -50.71C113.26 -50.71 113.6 -50.66 113.9 -50.55C114.2 -50.44 114.52 -50.11 114.84 -49.57L124.82 -34.52C125.81 -33.05 126.56 -32.04 127.07 -31.49C127.59 -30.95 128.45 -30.67 129.65 -30.67C130.85 -30.67 131.71 -30.95 132.23 -31.49C132.74 -32.04 133.49 -33.05 134.48 -34.52L144.46 -49.57C144.78 -50.11 145.08 -50.44 145.36 -50.55C145.63 -50.66 145.95 -50.71 146.34 -50.71L147.56 -50.71C148.11 -50.71 148.48 -50.54 148.67 -50.18C148.86 -49.83 148.95 -49.43 148.95 -49L148.95 -7.36L149.77 -7.36L149.77 -49C149.77 -49.87 149.59 -50.51 149.24 -50.92C148.89 -51.33 148.33 -51.53 147.56 -51.53L146.17 -51.53C145.74 -51.53 145.31 -51.44 144.91 -51.25C144.5 -51.06 144.13 -50.69 143.8 -50.14L133.82 -34.93C132.89 -33.51 132.21 -32.58 131.78 -32.15C131.34 -31.71 130.63 -31.49 129.65 -31.49ZM115.99 0L103.8 0C102.77 0 102.02 -0.23 101.55 -0.7C101.09 -1.16 100.86 -1.91 100.86 -2.94L100.86 -55.95C100.86 -56.99 101.09 -57.74 101.55 -58.2C102.02 -58.66 102.77 -58.89 103.8 -58.89L116.97 -58.89C117.84 -58.89 118.57 -58.7 119.14 -58.32C119.71 -57.94 120.24 -57.31 120.73 -56.44L128.1 -43.11C128.37 -42.62 128.6 -42.26 128.79 -42.04C128.98 -41.83 129.24 -41.72 129.57 -41.72L130.3 -41.72C130.63 -41.72 130.89 -41.83 131.08 -42.04C131.27 -42.26 131.5 -42.62 131.78 -43.11L139.06 -56.44C139.55 -57.31 140.08 -57.94 140.65 -58.32C141.22 -58.7 141.95 -58.89 142.82 -58.89L156.07 -58.89C157.11 -58.89 157.86 -58.66 158.32 -58.2C158.78 -57.74 159.02 -56.99 159.02 -55.95L159.02 -2.94C159.02 -1.91 158.78 -1.16 158.32 -0.7C157.86 -0.23 157.11 0 156.07 0L143.47 0C142.44 0 141.69 -0.23 141.22 -0.7C140.76 -1.16 140.53 -1.91 140.53 -2.94L140.53 -31.74L135.7 -22.82C135.21 -21.89 134.63 -21.23 133.94 -20.82C133.26 -20.41 132.4 -20.2 131.37 -20.2L128.1 -20.2C127.06 -20.2 126.2 -20.41 125.52 -20.82C124.84 -21.23 124.25 -21.89 123.76 -22.82L118.93 -31.74L118.93 -2.94C118.93 -1.91 118.7 -1.16 118.24 -0.7C117.78 -0.23 117.03 0 115.99 0ZM118.61 0.08C118.99 -0.25 119.28 -0.65 119.47 -1.15C119.66 -1.64 119.75 -2.24 119.75 -2.94L119.75 -10.47L120.82 -10.47C121.58 -10.47 122.25 -10.57 122.82 -10.76C123.39 -10.95 123.9 -11.23 124.33 -11.62L129.16 -15.62L129.16 5.97C129.16 7.28 129.45 8.23 130.02 8.83C130.59 9.43 131.56 9.73 132.92 9.73L145.52 9.73C146.06 9.73 146.57 9.65 147.03 9.49C147.5 9.32 147.84 9.13 148.05 8.92L158.69 0.08C159.07 -0.25 159.36 -0.65 159.55 -1.15C159.74 -1.64 159.83 -2.24 159.83 -2.94L159.83 -55.95C159.83 -57.26 159.53 -58.21 158.93 -58.81C158.33 -59.41 157.38 -59.71 156.07 -59.71L142.82 -59.71C142.16 -59.71 141.61 -59.63 141.14 -59.47C140.68 -59.3 140.23 -59.06 139.79 -58.73L129.24 -49.9C128.97 -49.68 128.71 -49.39 128.46 -49.04C128.22 -48.68 127.99 -48.32 127.77 -47.93L127.03 -46.62L121.47 -56.85C120.87 -57.89 120.23 -58.62 119.55 -59.06C118.87 -59.49 118.01 -59.71 116.97 -59.71L103.8 -59.71C103.26 -59.71 102.75 -59.64 102.29 -59.51C101.82 -59.37 101.46 -59.2 101.18 -58.98L90.63 -50.06C90.25 -49.73 89.96 -49.32 89.77 -48.83C89.58 -48.34 89.49 -47.74 89.49 -47.03L89.49 5.97C89.49 7.28 89.79 8.23 90.39 8.83C90.99 9.43 91.94 9.73 93.25 9.73L105.44 9.73C105.98 9.73 106.49 9.65 106.95 9.49C107.41 9.32 107.76 9.13 107.97 8.92Z M221.92 5.81L232.47 -3.03C234.32 -4.55 235.61 -6.38 236.31 -8.51C237.02 -10.63 237.38 -12.95 237.38 -15.46L237.38 -43.35C237.38 -45.92 237.02 -48.27 236.31 -50.43C235.61 -52.58 234.28 -54.44 232.35 -55.99C230.41 -57.54 227.74 -58.76 224.33 -59.63C220.92 -60.5 216.55 -60.94 211.2 -60.94C205.75 -60.94 201.32 -60.49 197.91 -59.59C194.5 -58.69 191.84 -57.42 189.94 -55.79L179.3 -46.95C177.45 -45.43 176.17 -43.58 175.46 -41.43C174.75 -39.28 174.39 -36.95 174.39 -34.44L174.39 -9C174.39 -6.43 174.76 -3.95 175.5 -1.55C176.23 0.85 177.57 2.97 179.51 4.83C181.44 6.68 184.11 8.17 187.52 9.28C190.93 10.4 195.31 10.96 200.65 10.96C206.05 10.96 210.47 10.51 213.9 9.61C217.34 8.71 220.01 7.44 221.92 5.81ZM236.56 -15.46C236.56 -12.95 236.19 -10.67 235.46 -8.63C234.72 -6.58 233.41 -4.84 231.53 -3.39C229.65 -1.95 227.06 -0.82 223.76 0C220.46 0.82 216.27 1.23 211.2 1.23C206.13 1.23 201.93 0.82 198.61 0C195.28 -0.82 192.68 -1.95 190.79 -3.39C188.91 -4.84 187.6 -6.58 186.87 -8.63C186.13 -10.67 185.76 -12.95 185.76 -15.46L185.76 -43.35C185.76 -45.86 186.13 -48.14 186.87 -50.18C187.6 -52.23 188.91 -53.99 190.79 -55.46C192.68 -56.93 195.28 -58.08 198.61 -58.89C201.93 -59.71 206.13 -60.12 211.2 -60.12C216.27 -60.12 220.46 -59.71 223.76 -58.89C227.06 -58.08 229.65 -56.93 231.53 -55.46C233.41 -53.99 234.72 -52.23 235.46 -50.18C236.19 -48.14 236.56 -45.86 236.56 -43.35ZM227.64 -17.34L227.64 -41.47C227.64 -44.74 226.47 -47.4 224.13 -49.45C221.78 -51.49 217.42 -52.51 211.04 -52.51C204.66 -52.51 200.32 -51.49 198.03 -49.45C195.74 -47.4 194.6 -44.74 194.6 -41.47L194.6 -17.34C194.6 -14.07 195.74 -11.41 198.03 -9.37C200.32 -7.32 204.66 -6.3 211.04 -6.3C217.42 -6.3 221.78 -7.32 224.13 -9.37C226.47 -11.41 227.64 -14.07 227.64 -17.34ZM195.42 -17.34L195.42 -41.47C195.42 -44.53 196.51 -46.99 198.69 -48.87C200.87 -50.76 204.99 -51.7 211.04 -51.7C217.09 -51.7 221.24 -50.76 223.47 -48.87C225.71 -46.99 226.83 -44.53 226.83 -41.47L226.83 -17.34C226.83 -14.29 225.71 -11.82 223.47 -9.94C221.24 -8.06 217.09 -7.12 211.04 -7.12C204.99 -7.12 200.87 -8.06 198.69 -9.94C196.51 -11.82 195.42 -14.29 195.42 -17.34ZM204.33 -18.4C204.33 -17.31 204.74 -16.4 205.56 -15.66C206.38 -14.93 208.26 -14.56 211.2 -14.56C214.15 -14.56 216.03 -14.93 216.85 -15.66C217.66 -16.4 218.07 -17.31 218.07 -18.4L218.07 -40.41C218.07 -41.44 217.66 -42.33 216.85 -43.07C216.03 -43.8 214.15 -44.17 211.2 -44.17C208.26 -44.17 206.38 -43.8 205.56 -43.07C204.74 -42.33 204.33 -41.44 204.33 -40.41ZM205.15 -18.4L205.15 -33.86C205.75 -33.65 206.16 -33.33 206.38 -32.92C206.59 -32.51 206.7 -32.04 206.7 -31.49L206.7 -15.95C206.1 -16.22 205.69 -16.56 205.48 -16.97C205.26 -17.38 205.15 -17.86 205.15 -18.4Z M273.04 -7.36L273.04 -28.96L295.05 -28.96C298.04 -28.96 300.31 -28.41 301.83 -27.32C303.36 -26.23 304.13 -24.38 304.13 -21.76L304.13 -7.36L304.94 -7.36L304.94 -21.76C304.94 -24.59 304.13 -26.64 302.49 -27.89C300.85 -29.15 298.37 -29.77 295.05 -29.77L291.69 -29.77L301.1 -51.53L300.2 -51.53L290.79 -29.77L273.04 -29.77L273.04 -51.53L272.22 -51.53L272.22 -7.36ZM278.93 0L266.25 0C265.22 0 264.47 -0.23 264 -0.7C263.54 -1.16 263.31 -1.91 263.31 -2.94L263.31 -55.95C263.31 -56.99 263.54 -57.74 264 -58.2C264.47 -58.66 265.22 -58.89 266.25 -58.89L278.93 -58.89C279.97 -58.89 280.72 -58.66 281.18 -58.2C281.64 -57.74 281.88 -56.99 281.88 -55.95L281.88 -37.14L285.15 -37.14L293.57 -56.2C293.95 -57.18 294.47 -57.87 295.13 -58.28C295.78 -58.69 296.63 -58.89 297.66 -58.89L310.26 -58.89C311.19 -58.89 311.81 -58.66 312.14 -58.2C312.47 -57.74 312.44 -57.07 312.06 -56.2L303.72 -37.14C306.77 -36.97 309.21 -35.9 311.04 -33.91C312.86 -31.91 313.78 -29.28 313.78 -26.01L313.78 -2.94C313.78 -1.91 313.55 -1.16 313.08 -0.7C312.62 -0.23 311.87 0 310.83 0L298.24 0C297.2 0 296.45 -0.23 295.99 -0.7C295.52 -1.16 295.29 -1.91 295.29 -2.94L295.29 -18.9C295.29 -19.77 295.07 -20.45 294.64 -20.94C294.2 -21.43 293.55 -21.68 292.67 -21.68L281.88 -21.68L281.88 -2.94C281.88 -1.91 281.64 -1.16 281.18 -0.7C280.72 -0.23 279.97 0 278.93 0ZM281.55 0.08C281.93 -0.25 282.22 -0.65 282.41 -1.15C282.6 -1.64 282.69 -2.24 282.69 -2.94L282.69 -11.86C283.08 -11.81 283.38 -11.62 283.59 -11.29C283.81 -10.96 283.92 -10.52 283.92 -9.98L283.92 5.97C283.92 7.28 284.22 8.23 284.82 8.83C285.42 9.43 286.37 9.73 287.68 9.73L300.28 9.73C300.83 9.73 301.33 9.65 301.79 9.49C302.26 9.32 302.6 9.13 302.82 8.92L313.45 0.08C313.83 -0.25 314.12 -0.65 314.31 -1.15C314.5 -1.64 314.6 -2.24 314.6 -2.94L314.6 -26.01C314.6 -29.28 313.72 -31.98 311.98 -34.11C310.23 -36.24 307.89 -37.49 304.94 -37.87L312.8 -55.87C313.34 -57.07 313.4 -58.01 312.96 -58.69C312.52 -59.37 311.62 -59.71 310.26 -59.71L297.66 -59.71C296.95 -59.71 296.31 -59.63 295.74 -59.47C295.17 -59.3 294.69 -59.06 294.31 -58.73L283.76 -49.81C283.54 -49.65 283.35 -49.45 283.18 -49.2C283.02 -48.96 282.86 -48.72 282.69 -48.51L282.69 -55.95C282.69 -57.26 282.39 -58.21 281.79 -58.81C281.19 -59.41 280.24 -59.71 278.93 -59.71L266.25 -59.71C265.71 -59.71 265.2 -59.64 264.74 -59.51C264.28 -59.37 263.91 -59.2 263.64 -58.98L253.08 -50.06C252.7 -49.73 252.42 -49.32 252.22 -48.83C252.03 -48.34 251.94 -47.74 251.94 -47.03L251.94 5.97C251.94 7.28 252.24 8.23 252.84 8.83C253.44 9.43 254.39 9.73 255.7 9.73L268.38 9.73C268.92 9.73 269.43 9.65 269.89 9.49C270.36 9.32 270.7 9.13 270.92 8.92Z M375.13 9.73C375.67 9.73 376.18 9.65 376.64 9.49C377.1 9.32 377.44 9.13 377.66 8.92L388.3 0.08C388.68 -0.25 388.96 -0.65 389.15 -1.15C389.34 -1.64 389.44 -2.24 389.44 -2.94L389.44 -28.22C389.44 -29.53 389.14 -30.48 388.54 -31.08C387.94 -31.68 386.99 -31.98 385.68 -31.98L373 -31.98C372.45 -31.98 371.95 -31.91 371.49 -31.78C371.02 -31.64 370.65 -31.46 370.38 -31.25L359.83 -22.33L359.46 -21.96C359.33 -21.83 359.23 -21.7 359.18 -21.59L359.18 -33.37L369.81 -33.37C370.35 -33.37 370.86 -33.46 371.32 -33.62C371.79 -33.78 372.13 -33.97 372.34 -34.19L382.98 -43.03C383.36 -43.35 383.65 -43.76 383.84 -44.25C384.03 -44.74 384.12 -45.34 384.12 -46.05L384.12 -55.95C384.12 -57.26 383.82 -58.21 383.22 -58.81C382.62 -59.41 381.67 -59.71 380.36 -59.71L359.91 -59.71C356.37 -59.71 353.27 -59.36 350.63 -58.65C347.98 -57.94 345.81 -56.88 344.12 -55.46L333.57 -46.54C331.88 -45.07 330.6 -43.24 329.73 -41.06C328.86 -38.88 328.42 -36.29 328.42 -33.29L328.42 -10.22C328.42 -4.34 330.12 0.46 333.53 4.17C336.94 7.88 342.22 9.73 349.36 9.73ZM385.68 0L359.91 0C353.09 0 348.04 -1.36 344.74 -4.09C341.44 -6.82 339.79 -11.02 339.79 -16.69L339.79 -42.21C339.79 -47.88 341.44 -52.08 344.74 -54.8C348.04 -57.53 353.09 -58.89 359.91 -58.89L380.36 -58.89C381.4 -58.89 382.15 -58.66 382.61 -58.2C383.07 -57.74 383.31 -56.99 383.31 -55.95L383.31 -46.05C383.31 -45.02 383.07 -44.27 382.61 -43.8C382.15 -43.34 381.4 -43.11 380.36 -43.11L363.35 -43.11C361.66 -43.11 360.4 -42.77 359.58 -42.09C358.77 -41.4 358.36 -40.38 358.36 -39.02L358.36 -19.47C358.36 -18.1 358.67 -17.1 359.3 -16.44C359.92 -15.79 360.87 -15.46 362.12 -15.46L370.05 -15.46L370.05 -28.22C370.05 -29.26 370.29 -30.01 370.75 -30.47C371.21 -30.93 371.96 -31.17 373 -31.17L385.68 -31.17C386.71 -31.17 387.46 -30.93 387.93 -30.47C388.39 -30.01 388.62 -29.26 388.62 -28.22L388.62 -2.94C388.62 -1.91 388.39 -1.16 387.93 -0.7C387.46 -0.23 386.71 0 385.68 0ZM363.43 -7.36L379.71 -7.36L379.71 -23.8L378.89 -23.8L378.89 -8.18L363.43 -8.18C357.92 -8.18 354.23 -8.92 352.34 -10.39C350.46 -11.86 349.52 -14.37 349.52 -17.91L349.52 -40.82C349.52 -44.42 350.37 -46.97 352.06 -48.47C353.75 -49.96 356.99 -50.71 361.79 -50.71L375.94 -50.71L375.94 -51.53L361.79 -51.53C356.56 -51.53 353.07 -50.71 351.32 -49.08C349.58 -47.44 348.7 -44.69 348.7 -40.82L348.7 -17.91C348.7 -16.01 348.91 -14.38 349.32 -13.05C349.73 -11.71 350.48 -10.62 351.57 -9.77C352.66 -8.93 354.16 -8.32 356.07 -7.93C357.98 -7.55 360.43 -7.36 363.43 -7.36Z M450.22 5.81L460.77 -3.03C462.62 -4.55 463.9 -6.38 464.61 -8.51C465.32 -10.63 465.68 -12.95 465.68 -15.46L465.68 -43.35C465.68 -45.92 465.32 -48.27 464.61 -50.43C463.9 -52.58 462.58 -54.44 460.65 -55.99C458.71 -57.54 456.04 -58.76 452.63 -59.63C449.22 -60.5 444.84 -60.94 439.5 -60.94C434.05 -60.94 429.62 -60.49 426.21 -59.59C422.8 -58.69 420.14 -57.42 418.23 -55.79L407.6 -46.95C405.75 -45.43 404.46 -43.58 403.76 -41.43C403.05 -39.28 402.69 -36.95 402.69 -34.44L402.69 -9C402.69 -6.43 403.06 -3.95 403.8 -1.55C404.53 0.85 405.87 2.97 407.8 4.83C409.74 6.68 412.41 8.17 415.82 9.28C419.23 10.4 423.6 10.96 428.95 10.96C434.35 10.96 438.76 10.51 442.2 9.61C445.64 8.71 448.31 7.44 450.22 5.81ZM464.86 -15.46C464.86 -12.95 464.49 -10.67 463.75 -8.63C463.02 -6.58 461.71 -4.84 459.83 -3.39C457.95 -1.95 455.36 -0.82 452.06 0C448.76 0.82 444.57 1.23 439.5 1.23C434.43 1.23 430.23 0.82 426.9 0C423.58 -0.82 420.97 -1.95 419.09 -3.39C417.21 -4.84 415.9 -6.58 415.17 -8.63C414.43 -10.67 414.06 -12.95 414.06 -15.46L414.06 -43.35C414.06 -45.86 414.43 -48.14 415.17 -50.18C415.9 -52.23 417.21 -53.99 419.09 -55.46C420.97 -56.93 423.58 -58.08 426.9 -58.89C430.23 -59.71 434.43 -60.12 439.5 -60.12C444.57 -60.12 448.76 -59.71 452.06 -58.89C455.36 -58.08 457.95 -56.93 459.83 -55.46C461.71 -53.99 463.02 -52.23 463.75 -50.18C464.49 -48.14 464.86 -45.86 464.86 -43.35ZM455.94 -17.34L455.94 -41.47C455.94 -44.74 454.77 -47.4 452.42 -49.45C450.08 -51.49 445.72 -52.51 439.34 -52.51C432.96 -52.51 428.62 -51.49 426.33 -49.45C424.04 -47.4 422.9 -44.74 422.9 -41.47L422.9 -17.34C422.9 -14.07 424.04 -11.41 426.33 -9.37C428.62 -7.32 432.96 -6.3 439.34 -6.3C445.72 -6.3 450.08 -7.32 452.42 -9.37C454.77 -11.41 455.94 -14.07 455.94 -17.34ZM423.71 -17.34L423.71 -41.47C423.71 -44.53 424.8 -46.99 426.99 -48.87C429.17 -50.76 433.28 -51.7 439.34 -51.7C445.39 -51.7 449.53 -50.76 451.77 -48.87C454.01 -46.99 455.12 -44.53 455.12 -41.47L455.12 -17.34C455.12 -14.29 454.01 -11.82 451.77 -9.94C449.53 -8.06 445.39 -7.12 439.34 -7.12C433.28 -7.12 429.17 -8.06 426.99 -9.94C424.8 -11.82 423.71 -14.29 423.71 -17.34ZM432.63 -18.4C432.63 -17.31 433.04 -16.4 433.86 -15.66C434.67 -14.93 436.56 -14.56 439.5 -14.56C442.45 -14.56 444.33 -14.93 445.14 -15.66C445.96 -16.4 446.37 -17.31 446.37 -18.4L446.37 -40.41C446.37 -41.44 445.96 -42.33 445.14 -43.07C444.33 -43.8 442.45 -44.17 439.5 -44.17C436.56 -44.17 434.67 -43.8 433.86 -43.07C433.04 -42.33 432.63 -41.44 432.63 -40.41ZM433.45 -18.4L433.45 -33.86C434.05 -33.65 434.46 -33.33 434.67 -32.92C434.89 -32.51 435 -32.04 435 -31.49L435 -15.95C434.4 -16.22 433.99 -16.56 433.77 -16.97C433.56 -17.38 433.45 -17.86 433.45 -18.4Z"></path>
    </g>
</svg>