<?xml version="1.0" standalone="no"?>
<!DOCTYPE svg PUBLIC "-//W3C//DTD SVG 20010904//EN"
 "http://www.w3.org/TR/2001/REC-SVG-20010904/DTD/svg10.dtd">
<svg version="1.0" xmlns="http://www.w3.org/2000/svg"
 width="700.000000pt" height="700.000000pt" viewBox="0 0 700.000000 700.000000"
 preserveAspectRatio="xMidYMid meet">
<metadata>
Created by potrace 1.14, written by Peter Selinger 2001-2017
</metadata>
<g transform="translate(0.000000,700.000000) scale(0.100000,-0.100000)"
fill="#000000" stroke="none">
<path d="M568 6995 c-2 -2 -22 -7 -43 -11 -80 -12 -190 -63 -265 -122 -118
-93 -202 -222 -239 -367 -20 -79 -21 -97 -20 -1845 0 -1451 2 -1777 13 -1835
49 -250 248 -451 505 -511 88 -21 672 -24 696 -4 13 11 15 182 15 1485 0 1434
1 1474 20 1549 32 127 95 224 202 309 80 65 198 113 298 123 14 1 678 2 1477
3 1254 1 1454 3 1466 15 12 13 14 65 12 328 -3 341 -5 360 -37 445 -63 169
-175 294 -333 372 -148 74 -22 69 -1991 70 -974 0 -1773 -1 -1776 -4z"/>
<path d="M5779 4712 c-17 -12 -18 -78 -18 -1475 0 -804 -3 -1480 -6 -1502 -23
-175 -151 -352 -313 -434 -24 -12 -77 -31 -118 -41 -70 -18 -134 -19 -1532
-19 -802 0 -1466 -3 -1476 -7 -10 -4 -21 -16 -25 -28 -4 -11 -7 -156 -6 -321
2 -301 8 -371 42 -453 49 -120 70 -151 168 -247 81 -80 178 -134 295 -164 73
-19 125 -20 1845 -20 1940 0 1840 -3 1972 59 179 83 296 215 366 412 l22 63 2
1805 c1 1737 1 1808 -17 1878 -57 218 -222 398 -426 465 -110 37 -141 39 -468
41 -218 1 -293 -2 -307 -12z"/>
<path d="M2947 4713 c-1 -1 -27 -2 -57 -4 -63 -3 -164 -28 -230 -58 -190 -86
-341 -283 -376 -491 -4 -25 -8 -447 -8 -939 -1 -800 0 -896 14 -914 16 -19 36
-19 910 -19 492 0 920 3 949 7 62 8 174 46 229 78 162 92 274 243 319 427 16
65 19 221 18 1002 0 662 -3 890 -12 899 -8 8 -234 12 -883 13 -479 0 -872 0
-873 -1z"/>
</g>
</svg>
